PathFileType	4	(X/Y/Z)	C:/Users/beibeiliu/ov580/test_trc/User2\sequence.7_training_dense_left.trc
DataRate	CameraRate	NumFrames	NumMarkers	Units	OrigDataRate	OrigDataStartFrame	OrigNumFrames
120	120	17	19	mm	120	1	113
Frame#	Time	ThumbCMC			ThumbMCP			ThumbIP			ThumbTip			IndexMCP			IndexPIP			IndexTip			MiddleMCP			MiddlePIP			MiddleTip			RingMCP			RingPIP			RingTip			PinkyMCP			PinkyPIP			PinkyTip			BackHand1			BackHand2			BackHand3	
		X0	Y0	Z0	X1	Y1	Z1	X2	Y2	Z2	X3	Y3	Z3	X4	Y4	Z4	X5	Y5	Z5	X6	Y6	Z6	X7	Y7	Z7	X8	Y8	Z8	X9	Y9	Z9	X10	Y10	Z10	X11	Y11	Z11	X12	Y12	Z12	X13	Y13	Z13	X14	Y14	Z14	X15	Y15	Z15	X16	Y16	Z16	X17	Y17	Z17	X18	Y18	Z18	
0	0	-350.776	13.7278	8.92913	-343.256	41.237	-10.2882	-329.816	64.7446	-34.9638	-305.124	74.8929	-51.9823	-305.427	-10.0106	-59.7414	-292.525	0.91587	-86.0506	-269.418	25.097	-101.835	-278.978	-24.5871	-55.2948	-252.797	-12.9629	-78.4191	-229.352	15.9272	-83.0727	-254.948	-15.4928	-38.9154	-237.627	8.14291	-43.7655	-244.515	37.8724	-23.6501	-243.327	-6.8209	-7.36942	-245.063	23.1309	-0.876024	-274.873	29.1348	13.5449	-294.687	-41.1875	3.42441	-315.618	-45.5327	36.7859	-332.513	-28.601	3.59772	
1	0.00833333	-353.245	9.50951	9.05605	-352.265	35.2168	-13.5842	-339.741	53.4938	-38.5339	-321.245	65.8741	-60.0296	-318.39	-19.6066	-62.262	-307.011	-10.424	-92.9098	-288.378	13.7109	-109.009	-290.835	-32.6388	-61.2629	-271.128	-24.3949	-85.3695	-247.443	5.83185	-96.8859	-263.509	-23.6854	-43.983	-251.604	2.68855	-57.0573	-258.107	36.9418	-36.2985	-253.727	-11.5534	-17.5395	-253.701	25.7312	-14.1885	-276.649	33.4842	2.95698	-297.341	-42.893	6.76566	-314.595	-45.8595	35.33	-336.037	-30.9703	4.65978	
2	0.0166667	-359.011	5.60938	13.4329	-361.078	27.4686	-10.531	-355.577	45.955	-45.8533	-341.145	53.161	-63.2667	-340.488	-30.2959	-64.9199	-331.309	-26.8926	-91.5703	-320.576	-4.61436	-113.259	-308.185	-45.7761	-58.8835	-293.281	-39.5103	-91.4536	-276.498	-13.0833	-110.776	-284.885	-33.7952	-51.6913	-269.387	-6.25233	-69.9463	-271.195	25.4418	-54.3478	-263.125	-19.4774	-30.2592	-262.092	15.9102	-32.2798	-282.62	28.5179	-13.6947	-303.175	-48.255	5.45861	-315.729	-45.4667	36.4644	-341.359	-35.6886	11.9298	
3	0.025	-366.411	2.71385	12.1019	-366.726	20.6499	-11.8638	-367.492	35.2328	-44.0853	-357.875	41.5677	-66.6907	-358.022	-44.296	-56.7496	-359.299	-40.8521	-89.414	-343.936	-25.8011	-109.108	-330.878	-57.9882	-54.5901	-319.175	-56.5916	-92.4222	-303.684	-33.8857	-115.254	-303.686	-48.3983	-55.9134	-290.49	-26.5474	-77.7878	-290.233	4.85306	-71.638	-282.754	-33.6175	-37.1588	-278.958	-0.742749	-49.4098	-290.902	20.8718	-29.405	-313.066	-53.6405	4.22848	-315.584	-49.6258	38.9821	-349.611	-40.3958	15.4232	
4	0.0333333	-365.996	-0.445469	19.4155	-371.28	15.5073	-12.8777	-377.043	29.1671	-42.9855	-369.983	30.3009	-71.3733	-379.845	-52.9673	-42.7352	-383.519	-56.0724	-73.9096	-374.741	-40.0708	-102.011	-355.477	-72.8355	-51.1698	-349.655	-71.553	-87.5716	-337.505	-55.395	-112.286	-320.304	-64.8807	-51.3607	-315.212	-45.1266	-79.9252	-308.057	-11.2656	-74.2028	-294.556	-50.2798	-41.4464	-296.194	-22.8105	-57.4757	-301.469	4.87753	-40.5431	-324.193	-63.1345	9.72478	-326.561	-52.2131	41.0945	-356.479	-43.6222	22.8425	
5	0.0416667	-367.68	0.290962	15.8529	-369.249	14.747	-13.3417	-375.068	24.6385	-47.5637	-371.311	25.8477	-74.6384	-395.684	-52.2566	-33.5863	-399.654	-58.919	-68.6745	-393.488	-45.9911	-94.5746	-372.137	-78.7733	-41.6187	-374.972	-82.268	-76.2304	-359.845	-68.883	-106.433	-340.204	-75.9223	-46.9724	-332.948	-60.5839	-77.3354	-321.997	-30.2033	-77.7564	-314.556	-66.543	-40.3951	-310.543	-43.4009	-60.9681	-308.592	-13.1411	-47.7957	-338.551	-64.4472	16.7815	-330.992	-53.7579	45.2669	-366.484	-39.9371	28.9503	
6	0.05	-363.715	8.47643	12.9797	-360.083	20.499	-19.2239	-358.999	28.4805	-48.9425	-357.387	25.3793	-77.0662	-405.936	-45.6572	-34.7274	-415.02	-45.4252	-60.9854	-403.276	-40.9785	-91.6556	-390.513	-73.6556	-36.6187	-396.982	-77.5904	-68.2245	-381.18	-68.2076	-103.854	-362.593	-74.7238	-41.3997	-352.467	-68.2774	-73.3678	-333.073	-35.4851	-78.2708	-329.512	-76.0152	-39.0269	-319.664	-51.2021	-62.3161	-312.485	-24.1876	-51.6276	-350.332	-61.3882	18.1047	-337.96	-53.5567	47.7434	-369.747	-34.7806	32.2727	
7	0.0583333	-353.002	16.1919	12.5829	-344.75	23.8367	-21.7775	-344.482	31.7585	-58.5791	-340.227	26.5849	-84.6984	-410.92	-28.3087	-33.5533	-420.087	-27.819	-65.8798	-408.494	-29.2122	-92.4647	-403.586	-59.4466	-34.5437	-410.236	-66.2235	-66.6749	-393.692	-57.8073	-103.448	-376.222	-69.1922	-41.7449	-362.27	-67.9978	-72.7587	-337.979	-44.1186	-77.4333	-344.411	-78.3027	-40.6063	-330.526	-60.2887	-61.8903	-314.398	-30.6132	-51.9636	-357.345	-60.9368	18.7636	-346.28	-50.3045	45.7834	-374.177	-22.66	30.2849	
8	0.0666667	-343.603	18.7717	7.91993	-332.579	22.8876	-26.1589	-327.353	26.6234	-58.3023	-325.29	19.508	-87.4205	-408.85	-9.46102	-32.4492	-420.519	-8.37373	-66.7522	-407.915	-6.06305	-97.1337	-408.988	-41.2964	-31.5626	-418.478	-51.1678	-69.4354	-402.34	-47.8497	-101.054	-385.545	-60.3702	-43.7669	-371.67	-59.8971	-72.9785	-340.772	-38.3467	-74.1763	-356.003	-74.7125	-36.2228	-338.628	-60.5684	-61.4456	-315.86	-36.2773	-52.6647	-366.986	-51.4857	16.4693	-350.16	-45.3178	47.2627	-370.387	-13.7268	28.5726	
9	0.075	-333.977	20.3935	11.249	-319.461	26.7932	-25.3177	-311.926	29.8645	-56.5419	-310.877	17.3137	-82.0151	-404.27	12.7246	-32.9314	-415.455	14.3442	-60.9822	-406.181	13.4455	-94.031	-413.857	-18.2396	-32.6922	-425.191	-21.7004	-66.956	-409.894	-25.4933	-99.6697	-394.192	-40.4136	-45.1327	-380.235	-46.9016	-72.78	-344.784	-34.1085	-71.8814	-368.841	-60.2896	-35.6645	-344.039	-53.6628	-61.276	-321.545	-35.4339	-50.8069	-374.097	-43.2357	17.6136	-359.749	-38.9299	44.9147	-368.453	-2.20404	30.2136	
10	0.0833333	-325.126	24.8553	12.2967	-309.43	24.3615	-20.6264	-300.559	25.5787	-54.3779	-300.625	17.8737	-82.3865	-394.66	33.3508	-32.4459	-401.624	43.0677	-60.0288	-394.431	38.2383	-93.7671	-412.698	7.43633	-32.3095	-423.087	8.74362	-63.9635	-412.398	-0.00824095	-98.4215	-397.864	-24.4197	-42.7259	-385.767	-26.1673	-72.3128	-347.006	-23.2402	-71.5546	-378.661	-44.4506	-36.1815	-353.961	-43.1987	-61.8065	-326.965	-32.4767	-50.9684	-380.133	-27.9698	18.3202	-365.407	-28.2125	44.1523	-366.256	7.82402	31.8634	
11	0.0916667	-316.454	22.1303	18.5061	-297.823	24.2323	-15.645	-289.13	25.0071	-48.9836	-292.336	16.572	-74.9736	-379.804	53.3707	-30.0232	-384.56	63.6752	-59.4518	-380.916	60.2354	-87.3151	-402.43	30.7673	-27.9164	-416.216	35.7434	-62.8538	-407.305	30.392	-99.663	-397.605	-0.641487	-38.6537	-387.881	-1.57677	-69.8454	-354.132	-13.0337	-74.3505	-384.201	-25.0333	-40.3258	-363.088	-29.29	-60.4171	-329.434	-29.867	-52.4696	-384.358	-10.7963	18.9068	-369.613	-18.9592	47.8525	-358.403	20.9128	31.9165	
12	0.1	-312.049	24.8029	17.7554	-295.957	19.7683	-13.1185	-281.075	22.4182	-46.1775	-281.754	18.8813	-73.5874	-364.638	66.728	-29.3577	-366.034	78.129	-56.836	-364.091	74.7519	-84.7164	-391.001	50.6895	-28.3123	-403.115	57.0625	-62.8432	-400.039	51.5171	-95.0527	-395.629	17.2979	-37.9348	-383.338	16.2203	-70.22	-354.407	-1.76695	-75.8691	-387.726	-12.9438	-34.8164	-368.425	-19.0402	-60.0758	-333.655	-24.4218	-55.5909	-379.118	6.49033	17.9229	-367.051	-6.36803	50.5245	-351.274	26.8645	35.2273	
13	0.108333	-301.322	23.7484	22.1833	-285.692	21.149	-12.5216	-274.963	22.1062	-45.2683	-274.926	17.6997	-72.312	-352.241	69.7339	-26.6392	-352.1	83.8688	-53.678	-347.664	81.2841	-88.1254	-380.101	61.8068	-29.6604	-386.649	70.501	-63.1265	-383.846	65.174	-94.9683	-385.598	33.7758	-38.4823	-379.529	29.4126	-67.1375	-352.187	9.20887	-77.9068	-382.923	4.27846	-37.3365	-363.78	-9.6589	-61.726	-335.802	-19.3329	-57.6127	-374.013	15.8967	18.4629	-365.794	4.9951	50.1882	-343.87	33.9052	39.0128	
14	0.116667	-292.12	25.5808	23.9108	-277.253	19.3797	-6.42888	-265.02	19.4348	-40.1167	-266.605	16.087	-67.0394	-338.794	74.9353	-28.8068	-337.787	86.1577	-55.5293	-332.325	82.941	-87.3145	-363.945	66.4868	-28.1438	-370.605	76.8311	-62.5928	-368.074	67.035	-100.736	-374.636	42.3809	-36.0634	-369.785	38.2239	-67.8466	-347.105	17.6891	-79.7416	-379.498	11.7881	-35.7978	-365.682	2.0048	-61.0788	-335.506	-18.1447	-63.0378	-369.214	20.2915	22.2801	-357.928	10.9361	49.2941	-336.007	38.0741	36.7993	
15	0.125	-283.818	23.6048	25.6792	-269.176	18.3538	-5.5997	-256.003	19.0697	-40.2747	-254.108	12.7268	-62.8448	-322.302	75.4142	-27.3331	-318.849	88.0455	-55.9935	-318.744	81.8756	-90.677	-353.134	68.0399	-27.9964	-354.992	79.9475	-66.7758	-352.539	68.484	-98.4581	-365.53	47.0595	-32.7838	-360.897	46.3625	-64.6732	-343.421	21.489	-82.1697	-373.55	19.3359	-31.6149	-360.408	12.1399	-59.7557	-336.157	-8.86352	-66.8896	-358.706	27.3576	19.8961	-351.388	16.533	51.2886	-325.348	43.9304	35.4303	
16	0.133333	-276.36	22.1293	29.0286	-259.035	17.4988	-4.41648	-247.608	14.3135	-33.653	-248.296	11.3381	-62.9092	-311.902	71.9753	-27.1475	-309.568	83.4608	-60.496	-305.634	77.0977	-89.5859	-343	66.8756	-29.1272	-346.514	77.1653	-67.1404	-340.936	61.6464	-98.9024	-354.986	50.6046	-33.3703	-356.966	48.2479	-66.5265	-339.77	21.99	-86.4758	-368.195	22.963	-30.0203	-361.99	16.3837	-58.5358	-341.968	-3.79547	-70.5381	-351.713	28.8262	23.9231	-345.481	23.1815	50.7938	-318.851	44.0627	33.8997	
